<?xml version="1.0" standalone="no"?>
<!DOCTYPE svg PUBLIC "-//W3C//DTD SVG 20010904//EN"
 "http://www.w3.org/TR/2001/REC-SVG-20010904/DTD/svg10.dtd">
<svg version="1.0" xmlns="http://www.w3.org/2000/svg"
 width="225.000000pt" height="225.000000pt" viewBox="0 0 225.000000 225.000000"
 preserveAspectRatio="xMidYMid meet">
<metadata>
Created by potrace 1.14, written by Peter Selinger 2001-2017
</metadata>
<g transform="translate(0.000000,225.000000) scale(0.100000,-0.100000)"
fill="#000000" stroke="none">
<path d="M1889 2235 c-125 -46 -208 -143 -253 -295 l-15 -50 31 -16 c17 -9 53
-36 79 -61 35 -33 52 -43 61 -36 7 6 38 30 68 54 30 24 92 66 137 92 45 27
109 73 143 103 l61 54 -26 10 c-15 6 -45 10 -68 10 -40 0 -170 -28 -211 -45
-11 -5 -17 -4 -14 1 92 191 93 211 7 179z"/>
<path d="M850 1951 c-286 -62 -533 -257 -669 -528 -119 -239 -125 -569 -13
-816 96 -211 256 -375 467 -478 144 -70 247 -93 420 -93 170 0 271 22 413 89
554 263 730 961 366 1455 -125 170 -312 299 -524 360 -108 32 -341 37 -460 11z
m25 -436 c50 -8 131 -15 180 -15 80 0 127 5 255 26 33 5 32 3 -23 -30 -32 -19
-86 -58 -120 -87 -67 -55 -85 -96 -67 -144 12 -32 39 -32 89 -1 42 27 51 25
51 -11 0 -35 58 -93 100 -99 104 -17 183 93 135 186 -15 29 -15 30 7 32 64 4
120 -9 162 -37 l36 -24 6 25 c7 28 0 117 -12 149 -13 38 67 -48 94 -100 37
-69 38 -187 3 -257 -29 -61 -89 -120 -149 -150 -65 -32 -182 -29 -362 8 -168
34 -251 34 -430 -1 -205 -39 -274 -43 -337 -15 -62 26 -125 91 -155 158 -30
68 -30 180 0 248 23 50 113 151 98 109 -13 -36 -19 -103 -12 -140 7 -34 9 -36
24 -22 40 34 137 62 180 50 20 -5 20 -7 7 -34 -66 -127 102 -251 203 -149 16
16 33 45 36 64 l7 36 39 -25 c22 -14 49 -25 59 -25 28 0 42 32 35 78 -5 31
-17 47 -65 88 -33 27 -87 66 -121 87 -34 20 -57 37 -52 37 5 0 50 -7 99 -15z"/>
</g>
</svg>
